<svg width="156" height="156" viewBox="0 0 156 156" fill="none" xmlns="http://www.w3.org/2000/svg">
<g id="cookies-svgrepo-com 1" clip-path="url(#clip0_2_4)">
<g id="cookie">
<path id="Vector" d="M146.138 75.6722L138.721 77.1554C136.254 77.649 133.773 76.3654 132.751 74.0653L124.807 56.1905C124.134 54.6771 122.802 53.5583 121.196 53.1564L117.057 52.122C114.662 51.5233 112.983 49.3719 112.983 46.9033V18.2212C112.983 16.8809 112.482 15.5887 111.579 14.5979L101.587 3.6334C92.5787 0.780612 82.8677 -0.492067 72.7716 0.172761C33.9681 2.72909 2.53377 34.2947 0.166042 73.1098C-2.59656 118.404 33.3194 156 78.0168 156C120.65 156 155.272 121.791 155.983 79.3281L149.599 76.1359C148.529 75.6006 147.311 75.4376 146.138 75.6722Z" fill="#FFE6A1"/>
<g id="Group">
<path id="Vector_2" d="M102.224 131.793C101.75 131.793 101.284 131.766 100.812 131.757C97.8568 135.073 93.5662 137.172 88.7753 137.172C81.7187 137.172 75.7359 132.635 73.543 126.326C63.8908 122.506 55.1847 116.823 47.8679 109.709C46.761 110.043 45.6114 110.276 44.3957 110.276C37.7112 110.276 32.2923 104.857 32.2923 98.1721C32.2923 95.8376 32.9846 93.6771 34.1296 91.8282C34.0476 91.6817 33.9602 91.5394 33.8788 91.3922C25.4831 90.8231 18.8443 83.8503 18.8443 75.3102C18.8443 70.2771 21.1496 65.7845 24.7604 62.8247C24.4183 59.8598 24.2236 56.8501 24.2236 53.7929C24.2236 38.4522 28.6702 24.1584 36.3187 12.0952C14.5074 25.9243 0.0167542 50.2625 0.0167542 78C0.0167542 121.078 34.9385 156 78.0168 156C105.754 156 130.092 141.509 143.922 119.698C131.858 127.347 117.565 131.793 102.224 131.793Z" fill="#FFD796"/>
<path id="Vector_3" d="M60.5341 64.5517C64.2477 64.5517 67.2582 61.5412 67.2582 57.8276C67.2582 54.1139 64.2477 51.1034 60.5341 51.1034C56.8204 51.1034 53.8099 54.1139 53.8099 57.8276C53.8099 61.5412 56.8204 64.5517 60.5341 64.5517Z" fill="#FFD796"/>
<path id="Vector_4" d="M131.81 108.931C135.524 108.931 138.534 105.92 138.534 102.207C138.534 98.4932 135.524 95.4827 131.81 95.4827C128.096 95.4827 125.086 98.4932 125.086 102.207C125.086 105.92 128.096 108.931 131.81 108.931Z" fill="#FFD796"/>
<path id="Vector_5" d="M70.6202 108.931C73.2197 108.931 75.327 106.824 75.327 104.224C75.327 101.625 73.2197 99.5173 70.6202 99.5173C68.0207 99.5173 65.9134 101.625 65.9134 104.224C65.9134 106.824 68.0207 108.931 70.6202 108.931Z" fill="#FFD796"/>
<path id="Vector_6" d="M106.931 65.8963C109.53 65.8963 111.637 63.789 111.637 61.1895C111.637 58.59 109.53 56.4827 106.931 56.4827C104.331 56.4827 102.224 58.59 102.224 61.1895C102.224 63.789 104.331 65.8963 106.931 65.8963Z" fill="#FFD796"/>
<path id="Vector_7" d="M88.1031 24.2068C90.7026 24.2068 92.8099 22.0995 92.8099 19.5C92.8099 16.9005 90.7026 14.7932 88.1031 14.7932C85.5036 14.7932 83.3963 16.9005 83.3963 19.5C83.3963 22.0995 85.5036 24.2068 88.1031 24.2068Z" fill="#FFD796"/>
</g>
<g id="Group_2">
<path id="Vector_8" d="M74.1028 69.2817L70.9934 74.4641C69.1348 77.5616 70.7972 81.5743 74.3014 82.4503L83.5566 84.7641C86.4389 85.4847 89.3597 83.7324 90.08 80.8501L91.1388 76.6149C91.3529 75.7581 91.3529 74.8623 91.1388 74.0055L90.0193 69.5276C89.3231 66.7418 86.5614 64.9941 83.7458 65.5572L77.6606 66.7741C76.1743 67.0718 74.8828 67.9822 74.1028 69.2817Z" fill="#B97850"/>
<path id="Vector_9" d="M89.6275 102.58L86.3847 107.985C84.7726 110.672 85.789 114.162 88.5915 115.564L98.915 120.725C101.993 122.265 105.705 120.557 106.539 117.219L107.603 112.965L108.846 107.993C109.619 104.899 107.546 101.814 104.387 101.363L95.0003 100.022C92.8584 99.716 90.7408 100.724 89.6275 102.58Z" fill="#B97850"/>
<path id="Vector_10" d="M33.0321 70.4919L29.0745 77.0881C27.8046 79.2047 28.1382 81.914 29.8835 83.6596L36.1119 89.8883C38.3791 92.1555 42.1133 91.9486 44.1163 89.445L49.456 82.7702C50.5047 81.4594 50.8813 79.734 50.4739 78.1051L49.2561 73.2338C48.7518 71.2167 47.1309 69.6714 45.0925 69.2634L38.6996 67.9849C36.4705 67.5389 34.2018 68.5425 33.0321 70.4919Z" fill="#B97850"/>
<path id="Vector_11" d="M54.9324 26.8183L51.8807 31.9047C50.1101 34.8556 51.5275 38.6874 54.7923 39.7757L61.4146 41.9832C63.3476 42.6273 65.4786 42.1243 66.9194 40.6837L70.484 37.1192C71.82 35.7831 72.3572 33.8438 71.8989 32.0108L70.9666 28.2817C70.3679 25.8866 68.2162 24.2065 65.7476 24.2065H59.5448C57.6557 24.2068 55.9047 25.1983 54.9324 26.8183Z" fill="#B97850"/>
<path id="Vector_12" d="M119.899 68.3932L116.786 71.5068C114.685 73.6073 114.685 77.0134 116.786 79.1142L118.31 80.638C119.947 82.2754 122.448 82.6812 124.519 81.6456L133.33 77.2404C135.585 76.1128 136.754 73.5705 136.143 71.1244L135.744 69.5282C135.048 66.7424 132.286 64.9947 129.47 65.5578L122.649 66.9222C121.607 67.13 120.65 67.6421 119.899 68.3932Z" fill="#B97850"/>
<path id="Vector_13" d="M99.8976 29.9983L96.3251 34.7618C95.0129 36.5113 94.8907 38.8818 96.0159 40.7571L99.3214 46.2662C100.902 48.8999 104.362 49.6781 106.918 47.9746L113.63 43.4996C116.2 41.7867 116.803 38.2666 114.95 35.7962L111.301 30.931C110.644 30.0556 109.737 29.4011 108.699 29.0553L105.902 28.123C103.705 27.3902 101.287 28.1458 99.8976 29.9983Z" fill="#B97850"/>
<path id="Vector_14" d="M53.8654 114.984L50.353 119.375C48.098 122.194 49.2043 126.389 52.5559 127.73L57.2739 129.617C58.5567 130.131 59.9872 130.131 61.2696 129.617L66.5645 127.499C69.7369 126.231 70.938 122.364 69.0428 119.521L68.1333 118.157C67.6138 117.378 66.9005 116.748 66.0633 116.329L60.4722 113.534C58.2026 112.399 55.4498 113.004 53.8654 114.984Z" fill="#B97850"/>
</g>
<g id="Group_3">
<path id="Vector_15" d="M42.7867 89.2494L36.5582 83.0209C34.813 81.2757 34.4791 78.5661 35.7493 76.4498L39.7069 69.8536C40.0445 69.2911 40.4905 68.8344 40.9838 68.442L38.6999 67.9855C36.4708 67.5398 34.2018 68.5434 33.0321 70.4925L29.0745 77.0887C27.8046 79.2053 28.1382 81.9146 29.8835 83.6602L36.1119 89.8886C38.2133 91.99 41.5582 91.9395 43.6331 89.931C43.3357 89.7338 43.0493 89.5123 42.7867 89.2494Z" fill="#A5694B"/>
<path id="Vector_16" d="M66.8021 40.0682L60.1797 37.8611C56.9153 36.7727 55.4973 32.941 57.2682 29.9901L60.3199 24.9036C60.475 24.6446 60.68 24.4317 60.8723 24.2068H59.5445C57.6551 24.2068 55.9041 25.1983 54.9318 26.8186L51.8801 31.9047C50.1092 34.8556 51.5266 38.6874 54.7917 39.7757L61.414 41.9832C63.347 42.6273 65.478 42.1243 66.9188 40.6837L67.42 40.1825C67.2141 40.1398 67.0051 40.1359 66.8021 40.0682Z" fill="#A5694B"/>
<path id="Vector_17" d="M88.6604 83.2175L79.4052 80.9037C75.9007 80.0274 74.2383 76.015 76.0972 72.9175L79.2066 67.7351C79.5768 67.1181 80.0685 66.5974 80.6356 66.1796L77.6606 66.7747C76.1746 67.0718 74.8825 67.9825 74.1028 69.2823L70.9934 74.4647C69.1348 77.5622 70.7972 81.5749 74.3014 82.4509L83.5566 84.7647C85.5063 85.2522 87.4563 84.5904 88.7479 83.2306C88.7186 83.2233 88.6897 83.2248 88.6604 83.2175Z" fill="#A5694B"/>
<path id="Vector_18" d="M104.346 45.8009L101.04 40.2919C99.9153 38.4165 100.037 36.0467 101.35 34.2965L104.922 29.5334C105.313 29.0114 105.799 28.6025 106.326 28.2634L105.902 28.1223C103.705 27.3902 101.286 28.1458 99.897 29.998L96.3248 34.7612C95.0126 36.511 94.8904 38.8812 96.0156 40.7565L99.3211 46.2656C100.896 48.8905 104.338 49.6689 106.891 47.988C105.868 47.5623 104.962 46.828 104.346 45.8009Z" fill="#A5694B"/>
<path id="Vector_19" d="M122.627 80.2797C120.526 78.1789 120.526 74.7731 122.627 72.6722L125.74 69.5586C126.491 68.8079 127.447 68.2957 128.489 68.0876L134.231 66.9392C133.003 65.7717 131.248 65.2016 129.47 65.5575L122.648 66.9219C121.607 67.1303 120.65 67.6422 119.899 68.3929L116.786 71.5065C114.685 73.6073 114.685 77.0131 116.786 79.1139L118.31 80.6377C119.846 82.1736 122.131 82.5761 124.118 81.772L122.627 80.2797Z" fill="#A5694B"/>
<path id="Vector_20" d="M95.2554 115.112C92.4529 113.711 91.4361 110.22 93.0485 107.533L96.2913 102.129C96.7167 101.421 97.3178 100.884 97.9808 100.448L95.001 100.023C92.8584 99.7163 90.7411 100.724 89.6278 102.58L86.385 107.985C84.7729 110.672 85.7893 114.162 88.5919 115.564L98.9153 120.725C100.973 121.754 103.295 121.31 104.87 119.92L95.2554 115.112Z" fill="#A5694B"/>
<path id="Vector_21" d="M62.6532 128.718L57.9351 126.831C54.5839 125.491 53.4775 121.295 55.7322 118.476L59.2447 114.085C59.4677 113.807 59.7181 113.563 59.9826 113.34C57.8175 112.511 55.3386 113.143 53.8654 114.984L50.353 119.375C48.098 122.194 49.2043 126.389 52.5559 127.73L57.2739 129.617C58.5567 130.131 59.9872 130.131 61.2696 129.617L63.1517 128.865C62.985 128.816 62.8153 128.783 62.6532 128.718Z" fill="#A5694B"/>
</g>
<path id="Vector_22" d="M21.5307 110.273C21.1276 110.273 20.7163 110.181 20.3306 109.989C19.0015 109.325 18.4628 107.71 19.1277 106.381L21.8174 101.001C22.4823 99.6724 24.0935 99.1392 25.4262 99.7986C26.7552 100.463 27.2939 102.078 26.6291 103.407L23.9393 108.787C23.4679 109.729 22.5185 110.273 21.5307 110.273Z" fill="#C98850"/>
<path id="Vector_23" d="M69.9477 145.241H67.2579C65.7726 145.241 64.5681 144.038 64.5681 142.551C64.5681 141.065 65.7726 139.862 67.2579 139.862H69.9477C71.4331 139.862 72.6375 141.065 72.6375 142.551C72.6375 144.038 71.4331 145.241 69.9477 145.241Z" fill="#925F4A"/>
<path id="Vector_24" d="M59.1865 94.1378C58.7834 94.1378 58.372 94.0461 57.9863 93.8541C56.6573 93.1893 56.1186 91.5741 56.7834 90.2454L59.4732 84.8661C60.1365 83.5398 61.748 83.0039 63.0819 83.6632C64.4109 84.3281 64.9496 85.9429 64.2848 87.2719L61.595 92.6512C61.1237 93.5942 60.174 94.1378 59.1865 94.1378Z" fill="#C98850"/>
<g id="Group_4">
<path id="Vector_25" d="M43.0487 51.1034C42.6456 51.1034 42.2343 51.0117 41.8485 50.8197L36.4693 48.13C35.1402 47.4651 34.6015 45.8503 35.2664 44.5212C35.9297 43.1949 37.5424 42.6562 38.8751 43.3183L44.2543 46.0078C45.5834 46.6726 46.1221 48.2875 45.4572 49.6165C44.9859 50.5595 44.0362 51.1034 43.0487 51.1034Z" fill="#925F4A"/>
<path id="Vector_26" d="M75.3273 13.448H69.948C68.4627 13.448 67.2582 12.2451 67.2582 10.7582C67.2582 9.27133 68.4627 8.06843 69.948 8.06843H75.3273C76.8126 8.06843 78.0171 9.27133 78.0171 10.7582C78.0171 12.2451 76.8126 13.448 75.3273 13.448Z" fill="#925F4A"/>
</g>
<path id="Vector_27" d="M86.0886 53.7929C85.1008 53.7929 84.1513 53.2493 83.68 52.3063L80.9902 46.9271C80.3254 45.598 80.8641 43.9826 82.1931 43.3183C83.5249 42.6563 85.1388 43.1949 85.8018 44.5212L88.4916 49.9005C89.1564 51.2295 88.6178 52.845 87.2887 53.5092C86.9024 53.7012 86.4917 53.7929 86.0886 53.7929Z" fill="#C98850"/>
<g id="Group_5">
<path id="Vector_28" d="M12.2746 66.9633C11.913 66.7851 11.5848 66.5209 11.3231 66.1781C10.4243 64.9947 10.6555 63.3077 11.8392 62.4091L16.6295 58.7724C17.812 57.8733 19.4979 58.1066 20.3985 59.2885C21.2974 60.4719 21.0661 62.159 19.8824 63.0575L15.0924 66.694C14.2524 67.3314 13.1604 67.3996 12.2746 66.9633Z" fill="#925F4A"/>
<path id="Vector_29" d="M112.982 96.8276C112.294 96.8276 111.606 96.5649 111.081 96.0396L105.702 90.6604C104.651 89.6098 104.651 87.9075 105.702 86.857C106.752 85.8064 108.454 85.8064 109.505 86.857L114.884 92.2362C115.935 93.2868 115.935 94.9891 114.884 96.0396C114.359 96.5649 113.67 96.8276 112.982 96.8276Z" fill="#925F4A"/>
</g>
<path id="Vector_30" d="M118.362 123.724C117.673 123.724 116.985 123.462 116.46 122.936C115.41 121.886 115.41 120.183 116.46 119.133L119.15 116.443C120.2 115.392 121.903 115.392 122.953 116.443C124.004 117.494 124.004 119.196 122.953 120.246L120.264 122.936C119.738 123.462 119.05 123.724 118.362 123.724Z" fill="#C98850"/>
</g>
<g id="crumps">
<g id="Group_6">
<path id="Vector_31" d="M123.741 10.7585V17.5445C123.741 19.4476 125.663 20.7486 127.429 20.0417L135.498 16.8142C136.519 16.4056 137.189 15.4166 137.189 14.317V10.7585C137.189 9.27316 135.985 8.06873 134.499 8.06873H126.43C124.945 8.06873 123.741 9.27316 123.741 10.7585Z" fill="#FFE6A1"/>
<path id="Vector_32" d="M129.491 31.9629L127.775 43.978C127.371 46.8043 129.246 49.4538 132.045 50.0135L136.971 50.9986C139.109 51.4264 141.293 50.5215 142.502 48.7076L144.355 45.9289C145.314 44.4892 145.523 42.6761 144.915 41.0563L139.304 26.0928C138.606 24.2318 136.219 23.7147 134.813 25.1203L131.013 28.92C130.19 29.743 129.656 30.8109 129.491 31.9629Z" fill="#FFE6A1"/>
</g>
<g id="Group_7">
<path id="Vector_33" d="M142.976 46.2208L138.05 45.2357C135.25 44.6757 133.376 42.0262 133.779 39.2002L135.496 27.1854C135.649 26.1139 136.149 25.1352 136.876 24.3387C136.146 24.3019 135.396 24.5368 134.813 25.1194L131.013 28.9194C130.19 29.7424 129.656 30.8103 129.492 31.9623L127.775 43.9771C127.372 46.8037 129.246 49.4529 132.045 50.0126L136.971 50.9977C139.109 51.4248 141.293 50.5205 142.502 48.7067L144.123 46.2759C143.742 46.2836 143.36 46.2979 142.976 46.2208Z" fill="#FFD796"/>
<path id="Vector_34" d="M132.809 14.6622C131.042 15.3687 129.12 14.0677 129.12 12.165V8.06873H126.43C124.945 8.06873 123.741 9.27316 123.741 10.7585V17.5445C123.741 19.4476 125.662 20.7486 127.429 20.0417L135.498 16.8142C136.519 16.4056 137.189 15.4169 137.189 14.317V12.9102L132.809 14.6622Z" fill="#FFD796"/>
<path id="Vector_35" d="M143.909 58.6594L142.32 61.8391C141.941 62.5962 141.941 63.4874 142.32 64.2446L143.045 65.6961C143.769 67.1431 145.596 67.6287 146.943 66.7314L151.279 63.8409C152.027 63.3418 152.476 62.5021 152.476 61.6029V58.7051C152.476 56.8693 150.678 55.5729 148.936 56.1536L145.464 57.3108C144.788 57.536 144.228 58.021 143.909 58.6594Z" fill="#FFD796"/>
</g>
</g>
</g>
<defs>
<clipPath id="clip0_2_4">
<rect width="156" height="156" fill="white"/>
</clipPath>
</defs>
</svg>
